<svg xmlns="http://www.w3.org/2000/svg" viewBox="0 0 64 64" fill="none">
  <defs>
    <linearGradient id="bg" x1="8" y1="6" x2="56" y2="58" gradientUnits="userSpaceOnUse">
      <stop stop-color="#FEF08A"/>
      <stop offset="0.45" stop-color="#FDBA74"/>
      <stop offset="1" stop-color="#38BDF8"/>
    </linearGradient>
    <linearGradient id="sky" x1="20" y1="20" x2="44" y2="46" gradientUnits="userSpaceOnUse">
      <stop stop-color="#EFF6FF"/>
      <stop offset="1" stop-color="#BFDBFE"/>
    </linearGradient>
    <linearGradient id="mountain" x1="22" y1="44" x2="43" y2="29" gradientUnits="userSpaceOnUse">
      <stop stop-color="#0F766E"/>
      <stop offset="1" stop-color="#14B8A6"/>
    </linearGradient>
    <clipPath id="imageClip">
      <rect x="9" y="9" width="46" height="46" rx="14"/>
    </clipPath>
  </defs>
  <rect width="64" height="64" rx="18" fill="url(#bg)"/>
  <g clip-path="url(#imageClip)">
    <rect x="9" y="9" width="46" height="46" rx="14" fill="url(#sky)"/>
    <circle cx="42" cy="21" r="5.3" fill="#FACC15"/>
    <path d="M9 45L22.6 31C23.5 30.1 24.9 30.1 25.8 31L31.7 36.9C32.6 37.8 34 37.8 34.9 36.9L38.3 33.5C39.2 32.6 40.6 32.6 41.5 33.5L55 47V55H9V45Z" fill="url(#mountain)"/>
  </g>
  <rect x="9" y="9" width="46" height="46" rx="14" stroke="#FFFBEB" stroke-width="1.5"/>
</svg>
