<svg version="1.2" xmlns="http://www.w3.org/2000/svg" viewBox="0 0 1200 630" width="1200" height="630"><defs><linearGradient id="P" gradientUnits="userSpaceOnUse"/><linearGradient id="g1" x2="1" href="#P" gradientTransform="matrix(927,564,-484.491,796.317,128,48)"><stop stop-color="#fef3c7"/><stop offset=".42" stop-color="#fed7aa"/><stop offset="1" stop-color="#7dd3fc"/></linearGradient><clipPath clipPathUnits="userSpaceOnUse" id="cp1"><path d="m247.6 183h196.8c18.56 0 33.6 15.04 33.6 33.6v196.8c0 18.56-15.04 33.6-33.6 33.6h-196.8c-18.56 0-33.6-15.04-33.6-33.6v-196.8c0-18.56 15.04-33.6 33.6-33.6z"/></clipPath><linearGradient id="g2" x2="1" href="#P" gradientTransform="matrix(234.4,230.4,-230.4,234.4,228.4,197.4)"><stop stop-color="#eff6ff"/><stop offset="1" stop-color="#bfdbfe"/></linearGradient><linearGradient id="g3" x2="1" href="#P" gradientTransform="matrix(234.4,230.4,-230.4,234.4,228.4,197.4)"><stop stop-color="#eff6ff"/><stop offset="1" stop-color="#bfdbfe"/></linearGradient><linearGradient id="g4" x2="1" href="#P" gradientTransform="matrix(190.4,-127.2,114.482,171.363,242.8,423.8)"><stop stop-color="#0f766e"/><stop offset="1" stop-color="#14b8a6"/></linearGradient></defs><style>tspan{white-space:pre}.a{fill:#fff8e7}.b{fill:url(#g1)}.c{opacity:.55;fill:#fff7ed}.d{opacity:.26;fill:#fff}.e{opacity:.3;fill:#f0f9ff}.f{fill:#fffbeb}.g{fill:url(#g2)}.h{fill:url(#g3)}.i{fill:#facc15}.j{fill:url(#g4)}.k{fill:none;stroke:#fffbeb;stroke-width:12}.l{font-size: 92px;fill: #fffbeb;font-weight: 200;font-family: "MonaSans-SemiBold", "Mona Sans"}.m{font-size: 42px;fill: #fffbeb;font-weight: 200;font-family: "MonaSans-Regular", "Mona Sans"}</style><path fill-rule="evenodd" class="a" d="m0 0h1200v630h-1200z"/><path fill-rule="evenodd" class="b" d="m0 0h1200v630h-1200z"/><path fill-rule="evenodd" class="c" d="m1070 270c-83 0-150-67.1-150-150 0-83 67-150 150-150 83 0 150 67 150 150 0 82.9-67 150-150 150z"/><path fill-rule="evenodd" class="d" d="m180 760c-105.1 0-190-84.9-190-190 0-105.1 84.9-190 190-190 105.1 0 190 84.9 190 190 0 105.1-84.9 190-190 190z"/><path fill-rule="evenodd" class="e" d="m940 730c-121.7 0-220-98.3-220-220 0-121.7 98.3-220 220-220 121.7 0 220 98.3 220 220 0 121.7-98.3 220-220 220z"/><path fill-rule="evenodd" class="f" d="m247.6 183h196.8c18.6 0 33.6 15 33.6 33.6v196.8c0 18.6-15 33.6-33.6 33.6h-196.8c-18.6 0-33.6-15-33.6-33.6v-196.8c0-18.6 15-33.6 33.6-33.6z"/><g clip-path="url(#cp1)"><path fill-rule="evenodd" class="g" d="m247.6 183h196.8c18.6 0 33.6 15 33.6 33.6v196.8c0 18.6-15 33.6-33.6 33.6h-196.8c-18.6 0-33.6-15-33.6-33.6v-196.8c0-18.6 15-33.6 33.6-33.6z"/><path fill-rule="evenodd" class="h" d="m247.6 183h196.8c18.6 0 33.6 15 33.6 33.6v196.8c0 18.6-15 33.6-33.6 33.6h-196.8c-18.6 0-33.6-15-33.6-33.6v-196.8c0-18.6 15-33.6 33.6-33.6z"/><path fill-rule="evenodd" class="i" d="m406 280.6c-16.8 0-30.4-13.6-30.4-30.4 0-16.8 13.6-30.4 30.4-30.4 16.8 0 30.4 13.6 30.4 30.4 0 16.8-13.6 30.4-30.4 30.4z"/><path class="j" d="m214 389.4l72.8-73.6c5.3-5.3 13.9-5.3 19.2 0l32.8 32.8c5.3 5.3 13.9 5.3 19.2 0l19.2-19.2c5.3-5.3 13.9-5.3 19.2 0l81.6 81.6v36h-264z"/></g><path fill-rule="evenodd" class="k" d="m247.6 183h196.8c18.6 0 33.6 15 33.6 33.6v196.8c0 18.6-15 33.6-33.6 33.6h-196.8c-18.6 0-33.6-15-33.6-33.6v-196.8c0-18.6 15-33.6 33.6-33.6z"/><text transform="translate(540.2,293)"><tspan x="0" y="0" class="l">Edit Now
</tspan></text><text transform="translate(546.2,353.5)"><tspan x="0" y="0" class="m">A focused canvas editor
</tspan></text><text transform="translate(546.2,353.5)"></text><text transform="translate(546.2,403.9)"><tspan x="0" y="0" class="m">for fast visual edits
</tspan></text></svg>